<svg width="1024" height="1024" viewBox="0 0 1024 1024" fill="none" xmlns="http://www.w3.org/2000/svg">
<rect width="1024" height="1024" fill="#3D5A80"/>
<path d="M584.291 700.031C595.981 700.031 605.457 690.555 605.457 678.866C605.457 690.555 614.933 700.031 626.623 700.031C638.312 700.031 647.788 690.555 647.788 678.866C647.788 690.555 657.264 700.031 668.954 700.031C680.643 700.031 690.119 690.555 690.119 678.866C690.119 690.555 699.596 700.031 711.285 700.031C722.975 700.031 732.451 690.555 732.451 678.866C732.451 690.555 741.927 700.031 753.616 700.031C765.306 700.031 774.782 690.555 774.782 678.866C774.782 690.555 784.258 700.031 795.948 700.031C807.637 700.031 817.113 690.555 817.113 678.866V654.173H774.782H732.451H690.119H647.788H605.457H563.126V678.866C563.126 690.555 572.602 700.031 584.291 700.031Z" fill="#A4A4A4"/>
<path d="M598.402 786.458H781.837C809.113 786.458 831.224 764.347 831.224 737.071V654.173H817.113V678.866C817.113 690.555 807.637 700.031 795.948 700.031C784.258 700.031 774.782 690.555 774.782 678.866C774.782 690.555 765.306 700.031 753.616 700.031C741.927 700.031 732.451 690.555 732.451 678.866C732.451 690.555 722.975 700.031 711.285 700.031C699.596 700.031 690.119 690.555 690.119 678.866C690.119 690.555 680.643 700.031 668.954 700.031C657.264 700.031 647.788 690.555 647.788 678.866C647.788 690.555 638.312 700.031 626.623 700.031C614.933 700.031 605.457 690.555 605.457 678.866C605.457 690.555 595.981 700.031 584.291 700.031C572.602 700.031 563.126 690.555 563.126 678.866V654.173H549.015V737.071C549.015 764.347 571.126 786.458 598.402 786.458Z" fill="#E9E6E6"/>
<path d="M605.457 678.866C605.457 690.555 595.981 700.031 584.291 700.031C572.602 700.031 563.126 690.555 563.126 678.866V654.173M605.457 678.866C605.457 690.555 614.933 700.031 626.623 700.031C638.312 700.031 647.788 690.555 647.788 678.866M605.457 678.866V654.173M647.788 678.866C647.788 690.555 657.264 700.031 668.954 700.031C680.643 700.031 690.119 690.555 690.119 678.866M647.788 678.866V654.173M690.119 678.866C690.119 690.555 699.596 700.031 711.285 700.031C722.975 700.031 732.451 690.555 732.451 678.866M690.119 678.866V654.173M732.451 678.866C732.451 690.555 741.927 700.031 753.616 700.031C765.306 700.031 774.782 690.555 774.782 678.866M732.451 678.866V654.173M774.782 678.866C774.782 690.555 784.258 700.031 795.948 700.031C807.637 700.031 817.113 690.555 817.113 678.866V654.173M774.782 678.866V654.173M563.126 654.173H605.457M563.126 654.173H549.015V737.071C549.015 764.347 571.126 786.458 598.402 786.458H781.837C809.113 786.458 831.224 764.347 831.224 737.071V654.173H817.113M605.457 654.173H647.788M647.788 654.173H690.119M690.119 654.173H732.451M732.451 654.173H774.782M774.782 654.173H817.113" stroke="black" stroke-width="18" stroke-linecap="round" stroke-linejoin="round"/>
<path d="M633.678 325.161V293.412C633.678 275.878 619.463 261.664 601.929 261.664C584.395 261.664 564.262 267.582 549.015 282.83C533.768 298.077 527.849 307.627 527.849 325.161C527.849 342.695 542.064 356.909 559.598 356.909H601.929C619.463 356.909 633.678 342.695 633.678 325.161Z" fill="#A4A4A4"/>
<path d="M670.364 337.577L658.371 376.805C655.013 387.787 661.194 399.411 672.176 402.768C683.157 406.126 691.095 401.066 691.095 390.009C691.095 401.066 699.456 406.126 710.437 402.768C721.419 399.411 727.6 387.787 724.242 376.805L712.249 337.577C709.402 328.265 699.914 322.985 691.307 322.886C682.276 322.886 673.211 328.265 670.364 337.577Z" fill="#A4A4A4"/>
<path d="M746.561 325.161V293.412C746.561 275.878 760.775 261.664 778.31 261.664C795.844 261.664 815.976 267.582 831.224 282.83C846.471 298.077 852.389 307.627 852.389 325.161C852.389 342.695 838.175 356.909 820.641 356.909H778.31C760.775 356.909 746.561 342.695 746.561 325.161Z" fill="#A4A4A4"/>
<path fill-rule="evenodd" clip-rule="evenodd" d="M584.291 450.391C595.981 450.391 605.457 459.867 605.457 471.557C605.457 459.867 614.933 450.391 626.622 450.391C638.312 450.391 647.788 459.867 647.788 471.557C647.788 459.867 657.264 450.391 668.954 450.391C680.643 450.391 690.119 459.867 690.119 471.557C690.119 459.867 699.596 450.391 711.285 450.391C722.974 450.391 732.451 459.867 732.451 471.557C732.451 459.867 741.927 450.391 753.616 450.391C765.306 450.391 774.782 459.867 774.782 471.557C774.782 459.867 784.258 450.391 795.948 450.391C807.637 450.391 817.113 459.867 817.113 471.557V496.25H861.208V432.753C883.613 432.753 901.776 414.59 901.776 392.185V314.578V256.373C901.776 139.478 807.014 44.7162 690.119 44.7162C573.225 44.7162 478.463 139.478 478.463 256.373V314.578V392.185C478.463 414.59 496.626 432.753 519.03 432.753V496.25H563.125V471.557C563.125 459.867 572.602 450.391 584.291 450.391ZM633.678 325.161V293.412C633.678 275.878 619.463 261.664 601.929 261.664C584.395 261.664 564.262 267.582 549.015 282.83C533.768 298.077 527.849 307.627 527.849 325.161C527.849 342.695 542.064 356.909 559.598 356.909H601.929C619.463 356.909 633.678 342.695 633.678 325.161ZM670.364 337.577L658.371 376.805C655.013 387.787 661.194 399.411 672.176 402.768C683.157 406.126 691.095 401.066 691.095 390.009C691.095 401.066 699.456 406.126 710.437 402.768C721.419 399.411 727.6 387.787 724.242 376.805L712.249 337.577C709.402 328.265 699.914 322.985 691.307 322.886C682.276 322.886 673.211 328.265 670.364 337.577ZM746.561 325.161V293.412C746.561 275.878 760.775 261.664 778.31 261.664C795.844 261.664 815.976 267.582 831.224 282.83C846.471 298.077 852.389 307.627 852.389 325.161C852.389 342.695 838.175 356.909 820.641 356.909H778.31C760.775 356.909 746.561 342.695 746.561 325.161Z" fill="#E9E7E7"/>
<path d="M605.457 471.557C605.457 459.867 595.981 450.391 584.291 450.391C572.602 450.391 563.125 459.867 563.125 471.557V496.25H605.457V471.557Z" fill="#A4A4A4"/>
<path d="M647.788 471.557C647.788 459.867 638.312 450.391 626.622 450.391C614.933 450.391 605.457 459.867 605.457 471.557V496.25H647.788V471.557Z" fill="#A4A4A4"/>
<path d="M690.119 471.557C690.119 459.867 680.643 450.391 668.954 450.391C657.264 450.391 647.788 459.867 647.788 471.557V496.25H690.119V471.557Z" fill="#A4A4A4"/>
<path d="M732.451 471.557C732.451 459.867 722.974 450.391 711.285 450.391C699.596 450.391 690.119 459.867 690.119 471.557V496.25H732.451V471.557Z" fill="#A4A4A4"/>
<path d="M774.782 471.557C774.782 459.867 765.306 450.391 753.616 450.391C741.927 450.391 732.451 459.867 732.451 471.557V496.25H774.782V471.557Z" fill="#A4A4A4"/>
<path d="M817.113 471.557C817.113 459.867 807.637 450.391 795.948 450.391C784.258 450.391 774.782 459.867 774.782 471.557V496.25H817.113V471.557Z" fill="#A4A4A4"/>
<path d="M605.457 471.557C605.457 459.867 595.981 450.391 584.291 450.391C572.602 450.391 563.125 459.867 563.125 471.557V496.25M605.457 471.557C605.457 459.867 614.933 450.391 626.622 450.391C638.312 450.391 647.788 459.867 647.788 471.557M605.457 471.557V496.25M647.788 471.557C647.788 459.867 657.264 450.391 668.954 450.391C680.643 450.391 690.119 459.867 690.119 471.557M647.788 471.557V496.25M690.119 471.557C690.119 459.867 699.596 450.391 711.285 450.391C722.974 450.391 732.451 459.867 732.451 471.557M690.119 471.557V496.25M732.451 471.557C732.451 459.867 741.927 450.391 753.616 450.391C765.306 450.391 774.782 459.867 774.782 471.557M732.451 471.557V496.25M774.782 471.557C774.782 459.867 784.258 450.391 795.948 450.391C807.637 450.391 817.113 459.867 817.113 471.557V496.25M774.782 471.557V496.25M519.03 432.753C496.626 432.753 478.463 414.59 478.463 392.185V314.578M519.03 432.753C541.435 432.753 559.598 414.59 559.598 392.185M519.03 432.753V496.25H563.125M478.463 314.578V256.373C478.463 139.478 573.225 44.7162 690.119 44.7162C807.014 44.7162 901.776 139.478 901.776 256.373V314.578M478.463 314.578C481.99 272.247 517.956 273.465 519.03 240.498C519.532 225.104 511.975 201.695 511.975 201.695M861.208 432.753C883.613 432.753 901.776 414.59 901.776 392.185V314.578M861.208 432.753C838.804 432.753 820.641 414.59 820.641 392.185M861.208 432.753V496.25H817.113M901.776 314.578C898.248 272.247 862.283 273.465 861.208 240.498C860.707 225.104 868.264 201.695 868.264 201.695M691.095 390.009C691.095 401.066 683.157 406.126 672.176 402.768C661.194 399.411 655.013 387.787 658.371 376.805L670.364 337.577C673.211 328.265 682.276 322.886 691.307 322.886C699.914 322.985 709.402 328.265 712.249 337.577L724.242 376.805C727.6 387.787 721.419 399.411 710.437 402.768C699.456 406.126 691.095 401.066 691.095 390.009ZM691.095 390.009V374.135M563.125 496.25H605.457M605.457 496.25H647.788M647.788 496.25H690.119M690.119 496.25H732.451M732.451 496.25H774.782M774.782 496.25H817.113M633.678 293.412V325.161C633.678 342.695 619.463 356.909 601.929 356.909H559.598C542.064 356.909 527.849 342.695 527.849 325.161C527.849 307.627 533.768 298.077 549.015 282.83C564.262 267.582 584.395 261.664 601.929 261.664C619.463 261.664 633.678 275.878 633.678 293.412ZM746.561 293.412V325.161C746.561 342.695 760.775 356.909 778.31 356.909H820.641C838.175 356.909 852.389 342.695 852.389 325.161C852.389 307.627 846.471 298.077 831.224 282.83C815.976 267.582 795.844 261.664 778.31 261.664C760.775 261.664 746.561 275.878 746.561 293.412Z" stroke="black" stroke-width="18" stroke-linecap="round" stroke-linejoin="round"/>
<path d="M412.879 834.702H146.073C133.725 834.702 123.715 844.712 123.715 857.06V891.342H435.237V857.06C435.237 844.712 425.227 834.702 412.879 834.702Z" fill="#694526"/>
<path d="M472.501 933.077V913.7C472.501 901.352 462.491 891.342 450.143 891.342H435.237H123.715H108.809C96.4613 891.342 86.4512 901.352 86.4512 913.7V933.077C86.4512 945.425 96.4613 955.435 108.809 955.435H450.143C462.491 955.435 472.501 945.425 472.501 933.077Z" fill="#4A321D"/>
<path d="M123.715 891.342H108.809C96.4613 891.342 86.4512 901.352 86.4512 913.7V933.077C86.4512 945.425 96.4613 955.435 108.809 955.435H450.143C462.491 955.435 472.501 945.425 472.501 933.077V913.7C472.501 901.352 462.491 891.342 450.143 891.342H435.237M123.715 891.342V857.06C123.715 844.712 133.725 834.702 146.073 834.702H412.879C425.227 834.702 435.237 844.712 435.237 857.06V891.342M123.715 891.342H435.237" stroke="black" stroke-width="12"/>
<path d="M861.531 524.961L518.707 524.961V624.93H861.531V524.961Z" fill="#694526"/>
<path d="M926.821 592.508V557.384C926.821 539.477 912.305 524.961 894.399 524.961H861.531V624.93H894.399C912.305 624.93 926.821 610.414 926.821 592.508Z" fill="#4A321D"/>
<path d="M448.591 557.384V592.508C448.591 598.414 450.17 603.95 452.929 608.719C458.535 618.41 469.013 624.93 481.014 624.93H518.707V524.961H481.014C469.013 524.961 458.535 531.482 452.929 541.173C450.17 545.942 448.591 551.478 448.591 557.384Z" fill="#4A321D"/>
<path d="M347.826 484.897H199.223C197.807 484.897 196.411 484.81 195.04 484.641C201.788 499.797 219.487 542.51 219.487 573.595C219.487 604.681 201.788 647.393 195.04 662.549C196.411 662.38 197.807 662.293 199.223 662.293L347.826 662.293C349.242 662.293 350.638 662.38 352.009 662.549C347.615 652.682 338.58 631.134 332.81 608.719C329.717 596.705 327.562 584.442 327.562 573.595C327.562 563.56 329.406 552.313 332.131 541.173C337.848 517.804 347.439 494.904 352.009 484.641C350.638 484.81 349.242 484.897 347.826 484.897Z" fill="#694526"/>
<path d="M448.591 592.508V557.384C448.591 551.478 450.17 545.942 452.929 541.173H332.131C329.406 552.313 327.562 563.56 327.562 573.595C327.562 584.442 329.717 596.705 332.81 608.719H452.929C450.17 603.95 448.591 598.414 448.591 592.508Z" fill="#B88B33"/>
<path d="M347.826 417.351H199.223C180.571 417.351 165.45 432.472 165.45 451.124C165.45 468.36 178.361 482.581 195.04 484.641C196.411 484.81 197.807 484.897 199.223 484.897H347.826C349.242 484.897 350.638 484.81 352.009 484.641C368.687 482.581 381.599 468.36 381.599 451.124C381.599 432.472 366.478 417.351 347.826 417.351Z" fill="#4A321D"/>
<path d="M347.826 662.293L199.223 662.293C197.807 662.293 196.411 662.38 195.04 662.549C178.361 664.609 165.45 678.83 165.45 696.066C165.45 714.718 180.571 729.839 199.223 729.839H347.826C366.478 729.839 381.599 714.718 381.599 696.066C381.599 678.83 368.687 664.609 352.009 662.549C350.638 662.38 349.242 662.293 347.826 662.293Z" fill="#4A321D"/>
<path d="M352.009 484.641C368.687 482.581 381.599 468.36 381.599 451.124C381.599 432.472 366.478 417.351 347.826 417.351H199.223C180.571 417.351 165.45 432.472 165.45 451.124C165.45 468.36 178.361 482.581 195.04 484.641M352.009 484.641C350.638 484.81 349.242 484.897 347.826 484.897H199.223C197.807 484.897 196.411 484.81 195.04 484.641M352.009 484.641C347.439 494.904 337.848 517.804 332.131 541.173M195.04 484.641C201.788 499.797 219.487 542.51 219.487 573.595C219.487 604.681 201.788 647.393 195.04 662.549M352.009 662.549C350.638 662.38 349.242 662.293 347.826 662.293L199.223 662.293C197.807 662.293 196.411 662.38 195.04 662.549M352.009 662.549C368.687 664.609 381.599 678.83 381.599 696.066C381.599 714.718 366.478 729.839 347.826 729.839H199.223C180.571 729.839 165.45 714.718 165.45 696.066C165.45 678.83 178.361 664.609 195.04 662.549M352.009 662.549C347.615 652.682 338.58 631.134 332.81 608.719M332.131 541.173C329.406 552.313 327.562 563.56 327.562 573.595C327.562 584.442 329.717 596.705 332.81 608.719M332.131 541.173H452.929M332.81 608.719H452.929M452.929 541.173C450.17 545.942 448.591 551.478 448.591 557.384V592.508C448.591 598.414 450.17 603.95 452.929 608.719M452.929 541.173C458.535 531.482 469.013 524.961 481.014 524.961H518.707M452.929 608.719C458.535 618.41 469.013 624.93 481.014 624.93H518.707M518.707 524.961L861.531 524.961M518.707 524.961V624.93M861.531 524.961H894.399C912.305 524.961 926.821 539.477 926.821 557.384V592.508C926.821 610.414 912.305 624.93 894.399 624.93H861.531M861.531 524.961V624.93M861.531 624.93H518.707" stroke="black" stroke-width="12"/>
</svg>
